<svg width="18" height="17" viewBox="0 0 18 17" fill="none" xmlns="http://www.w3.org/2000/svg">
<path d="M17.2499 14.7389L17.061 14.5722C16.5251 14.0948 16.0561 13.5473 15.6666 12.9445C15.2411 12.1125 14.9861 11.204 14.9166 10.2722V7.52779C14.9202 6.06424 14.3893 4.64972 13.4236 3.54999C12.4579 2.45027 11.1239 1.74104 9.67211 1.55556V0.838896C9.67211 0.642193 9.59397 0.453548 9.45488 0.314458C9.31579 0.175369 9.12715 0.097229 8.93045 0.097229C8.73374 0.097229 8.5451 0.175369 8.40601 0.314458C8.26692 0.453548 8.18878 0.642193 8.18878 0.838896V1.56667C6.75003 1.76552 5.4321 2.47904 4.47907 3.57507C3.52605 4.67109 3.00252 6.07537 3.00545 7.52779V10.2722C2.93587 11.204 2.68088 12.1125 2.25545 12.9445C1.8726 13.5458 1.41111 14.0932 0.883225 14.5722L0.694336 14.7389V16.3056H17.2499V14.7389Z" fill="black"/>
</svg>
