<svg width="16" height="17" viewBox="0 0 16 17" fill="none" xmlns="http://www.w3.org/2000/svg">
<path d="M8.00001 7.58333C5.73001 7.58333 5.27001 4.14333 5.27001 4.14333C5.00001 2.35333 5.82001 0.333328 7.97001 0.333328C10.13 0.333328 10.95 2.35333 10.68 4.14333C10.68 4.14333 10.27 7.58333 8.00001 7.58333ZM8.00001 10.1533L10.72 8.33333C13.11 8.33333 15.24 10.6633 15.24 12.8633V15.3533C15.24 15.3533 11.59 16.4833 8.00001 16.4833C4.35001 16.4833 0.76001 15.3533 0.76001 15.3533V12.8633C0.76001 10.6133 2.70001 8.38333 5.23001 8.38333L8.00001 10.1533Z" fill="black"/>
</svg>
