<svg width="20" height="18" viewBox="0 0 20 18" fill="none" xmlns="http://www.w3.org/2000/svg">
<path d="M17.5033 0.669983H2.50334C2.06171 0.671302 1.63856 0.84732 1.32628 1.1596C1.01401 1.47187 0.837989 1.89503 0.83667 2.33665V12.3366C0.837989 12.7783 1.01401 13.2014 1.32628 13.5137C1.63856 13.826 2.06171 14.002 2.50334 14.0033H8.33667V15.67H6.67V17.3366H13.3367V15.67H11.67V14.0033H17.5033C17.945 14.002 18.3681 13.826 18.6804 13.5137C18.9927 13.2014 19.1687 12.7783 19.17 12.3366V2.33665C19.1687 1.89503 18.9927 1.47187 18.6804 1.1596C18.3681 0.84732 17.945 0.671302 17.5033 0.669983ZM8.96334 10.3916H8.9625L5.00417 6.43332L6.18334 5.25582L8.96334 8.03582L13.8258 3.17248L15.005 4.35165L8.96334 10.3916Z" fill="black"/>
</svg>
