<svg width="18" height="12" viewBox="0 0 18 12" fill="none" xmlns="http://www.w3.org/2000/svg">
<path d="M16.2917 0.0555515C16.8667 0.0555515 17.3334 0.522218 17.3334 1.09722V2.97972C17.3334 3.13782 17.2734 3.29003 17.1657 3.40569C17.0579 3.52136 16.9103 3.59188 16.7526 3.60305C16.1746 3.64437 15.6336 3.90315 15.2388 4.32727C14.8439 4.7514 14.6243 5.30938 14.6243 5.88889C14.6243 6.46839 14.8439 7.02637 15.2388 7.4505C15.6336 7.87462 16.1746 8.1334 16.7526 8.17472C16.9103 8.18589 17.0579 8.25641 17.1657 8.37208C17.2734 8.48774 17.3334 8.63996 17.3334 8.79805V10.6806C17.3334 11.2556 16.8667 11.7222 16.2917 11.7222H1.70841C1.13341 11.7222 0.666748 11.2556 0.666748 10.6806V8.79805C0.666774 8.63996 0.726714 8.48774 0.834493 8.37208C0.942272 8.25641 1.08988 8.18589 1.24758 8.17472C1.82561 8.1334 2.36652 7.87462 2.76141 7.4505C3.1563 7.02637 3.37584 6.46839 3.37584 5.88889C3.37584 5.30938 3.1563 4.7514 2.76141 4.32727C2.36652 3.90315 1.82561 3.64437 1.24758 3.60305C1.08988 3.59188 0.942272 3.52136 0.834493 3.40569C0.726714 3.29003 0.666774 3.13782 0.666748 2.97972V1.09722C0.666748 0.522218 1.13341 0.0555515 1.70841 0.0555515H16.2917Z" fill="black"/>
</svg>
